<?xml version="1.0" standalone="no"?>
<!DOCTYPE svg PUBLIC "-//W3C//DTD SVG 20010904//EN"
 "http://www.w3.org/TR/2001/REC-SVG-20010904/DTD/svg10.dtd">
<svg version="1.0" xmlns="http://www.w3.org/2000/svg"
 width="179.000000pt" height="179.000000pt" viewBox="0 0 179.000000 179.000000"
 preserveAspectRatio="xMidYMid meet">

<g transform="translate(0.000000,179.000000) scale(0.100000,-0.100000)"
fill="#000000" stroke="none">
<path d="M0 895 l0 -895 895 0 895 0 0 895 0 895 -895 0 -895 0 0 -895z m1077
534 c87 -50 164 -98 171 -107 9 -11 12 -70 12 -209 0 -171 -2 -195 -18 -211
-30 -30 -318 -192 -342 -192 -24 0 -312 162 -342 192 -16 16 -18 40 -18 211 0
105 4 198 9 206 13 21 323 199 348 200 12 1 93 -40 180 -90z m-753 -871 c9
-12 16 -39 16 -59 0 -54 -37 -81 -104 -77 l-51 3 -3 78 -3 77 65 0 c56 0 67
-3 80 -22z m186 7 c0 -12 -13 -15 -55 -15 l-55 0 0 -50 0 -50 55 0 c42 0 55
-3 55 -15 0 -11 -12 -15 -51 -15 -80 0 -89 9 -89 90 l0 70 70 0 c56 0 70 -3
70 -15z m77 -42 l25 -58 29 58 c16 31 36 57 44 57 11 0 5 -20 -25 -80 -22 -44
-44 -80 -48 -80 -7 0 -82 142 -82 155 0 3 7 5 16 5 9 0 25 -23 41 -57z m277
35 c21 -30 20 -54 -4 -78 -24 -24 -100 -29 -100 -6 0 10 14 16 43 18 37 3 42
6 42 28 0 23 -4 25 -47 28 l-47 3 -3 -62 c-2 -39 -8 -64 -15 -67 -10 -3 -13
16 -13 71 0 40 3 77 7 80 3 4 32 7 64 7 48 0 60 -4 73 -22z m184 10 c-3 -8
-27 -14 -61 -16 l-57 -3 0 -49 0 -50 61 0 c77 0 78 -23 1 -28 -81 -5 -92 6
-92 88 l0 70 76 0 c56 0 75 -3 72 -12z m182 -3 c0 -12 -14 -15 -65 -15 l-65 0
0 -50 0 -50 50 0 c43 0 50 3 50 20 0 16 -7 20 -35 20 -25 0 -35 4 -35 16 0 12
10 14 48 12 l47 -3 0 -45 0 -45 -61 -3 c-79 -4 -94 10 -94 82 0 28 5 57 12 64
7 7 40 12 80 12 54 0 68 -3 68 -15z m190 -65 c0 -64 -3 -80 -15 -80 -8 0 -15
9 -15 20 0 17 -7 20 -50 20 -43 0 -50 -3 -50 -20 0 -11 -7 -20 -15 -20 -12 0
-15 13 -15 57 0 80 23 103 102 103 l58 0 0 -80z m185 35 c0 -31 -5 -42 -23
-51 l-23 -12 33 -26 c33 -26 33 -26 7 -26 -15 0 -37 12 -54 30 -16 17 -35 30
-42 30 -7 0 -13 5 -13 10 0 6 13 10 29 10 42 0 61 10 61 31 0 16 -8 19 -50 19
l-50 0 0 -65 c0 -51 -3 -65 -15 -65 -12 0 -15 16 -15 80 l0 81 78 -3 77 -3 0
-40z m-1105 -30 c0 -11 -12 -15 -45 -15 -33 0 -45 4 -45 15 0 11 12 15 45 15
33 0 45 -4 45 -15z m530 0 c0 -11 -12 -15 -45 -15 -33 0 -45 4 -45 15 0 11 12
15 45 15 33 0 45 -4 45 -15z m-603 -171 c-3 -3 -12 -4 -19 -1 -8 3 -5 6 6 6
11 1 17 -2 13 -5z m46 -34 c-3 -11 -7 -20 -9 -20 -2 0 -4 9 -4 20 0 11 4 20 9
20 5 0 7 -9 4 -20z m137 0 c0 -11 -4 -20 -8 -20 -4 0 -8 9 -8 20 0 11 4 20 8
20 4 0 8 -9 8 -20z m66 0 c0 -12 -4 -16 -9 -11 -5 5 -6 14 -3 20 10 15 12 14
12 -9z m34 0 c0 -11 -2 -20 -4 -20 -2 0 -6 9 -9 20 -3 11 -1 20 4 20 5 0 9 -9
9 -20z m27 -12 c-3 -7 -5 -2 -5 12 0 14 2 19 5 13 2 -7 2 -19 0 -25z m120 0
c-3 -7 -5 -2 -5 12 0 14 2 19 5 13 2 -7 2 -19 0 -25z m36 12 c-3 -11 -7 -20
-9 -20 -2 0 -4 9 -4 20 0 11 4 20 9 20 5 0 7 -9 4 -20z m64 -12 c-3 -7 -5 -2
-5 12 0 14 2 19 5 13 2 -7 2 -19 0 -25z m147 6 c-4 -38 -14 -42 -14 -6 0 18 4
32 9 32 4 0 7 -12 5 -26z m34 1 c-3 -3 -9 2 -12 12 -6 14 -5 15 5 6 7 -7 10
-15 7 -18z m59 -7 c-3 -7 -5 -2 -5 12 0 14 2 19 5 13 2 -7 2 -19 0 -25z m80 0
c-3 -7 -5 -2 -5 12 0 14 2 19 5 13 2 -7 2 -19 0 -25z m30 0 c-3 -7 -5 -2 -5
12 0 14 2 19 5 13 2 -7 2 -19 0 -25z m66 12 c-3 -11 -7 -20 -9 -20 -2 0 -4 9
-4 20 0 11 4 20 9 20 5 0 7 -9 4 -20z m-866 -12 c-3 -8 -6 -5 -6 6 -1 11 2 17
5 13 3 -3 4 -12 1 -19z m260 0 c-3 -8 -6 -5 -6 6 -1 11 2 17 5 13 3 -3 4 -12
1 -19z m30 0 c-3 -8 -6 -5 -6 6 -1 11 2 17 5 13 3 -3 4 -12 1 -19z"/>
<path d="M887 1127 c-41 -125 -43 -137 -23 -137 15 0 100 226 90 241 -15 26
-33 -2 -67 -104z"/>
<path d="M746 1154 l-49 -37 24 -19 c74 -58 76 -59 84 -40 4 11 -2 24 -20 38
l-27 21 28 20 c21 15 25 24 17 37 -8 15 -14 13 -57 -20z"/>
<path d="M996 1174 c-4 -10 3 -23 20 -37 l27 -21 -27 -21 c-18 -14 -25 -27
-20 -38 7 -18 11 -16 84 42 l25 20 -24 18 c-69 51 -78 55 -85 37z"/>
<path d="M210 501 l0 -51 39 0 c47 0 63 18 59 62 -3 32 -5 33 -50 36 l-48 3 0
-50z"/>
<path d="M1302 538 c-7 -7 -12 -20 -12 -30 0 -15 9 -18 50 -18 49 0 50 1 50
30 0 28 -2 30 -38 30 -21 0 -43 -5 -50 -12z"/>
</g>
</svg>
